<mxfile host="app.diagrams.net" agent="Mozilla/5.0 (Windows NT 10.0; Win64; x64) AppleWebKit/537.36 (KHTML, like Gecko) Chrome/131.0.0.0 Safari/537.36" version="26.0.2">
  <diagram name="第 1 页" id="N16P2D6dZ6Zy1LPLPoeg">
    <mxGraphModel dx="1588" dy="840" grid="1" gridSize="10" guides="1" tooltips="1" connect="1" arrows="1" fold="1" page="1" pageScale="1" pageWidth="2339" pageHeight="3300" math="0" shadow="0">
      <root>
        <mxCell id="0" />
        <mxCell id="1" parent="0" />
        <mxCell id="SDwWJI0hLl5nrFzAI4eY-5" value="共享仓储" style="swimlane;childLayout=stackLayout;resizeParent=1;resizeParentMax=0;startSize=20;html=1;" vertex="1" parent="1">
          <mxGeometry x="640.0000000000005" y="260" width="1170" height="880" as="geometry" />
        </mxCell>
        <mxCell id="SDwWJI0hLl5nrFzAI4eY-6" value="server" style="swimlane;startSize=20;html=1;" vertex="1" parent="SDwWJI0hLl5nrFzAI4eY-5">
          <mxGeometry y="20" width="570" height="860" as="geometry" />
        </mxCell>
        <mxCell id="SDwWJI0hLl5nrFzAI4eY-1" value="" style="ellipse;html=1;shape=startState;fillColor=#000000;strokeColor=#ff0000;" vertex="1" parent="SDwWJI0hLl5nrFzAI4eY-6">
          <mxGeometry x="204.99999999999955" y="20" width="30" height="30" as="geometry" />
        </mxCell>
        <mxCell id="SDwWJI0hLl5nrFzAI4eY-2" value="" style="edgeStyle=orthogonalEdgeStyle;html=1;verticalAlign=bottom;endArrow=open;endSize=8;strokeColor=#ff0000;rounded=0;entryX=0.5;entryY=0;entryDx=0;entryDy=0;" edge="1" source="SDwWJI0hLl5nrFzAI4eY-1" parent="SDwWJI0hLl5nrFzAI4eY-6" target="SDwWJI0hLl5nrFzAI4eY-3">
          <mxGeometry relative="1" as="geometry">
            <mxPoint x="219.99999999999955" y="110" as="targetPoint" />
          </mxGeometry>
        </mxCell>
        <mxCell id="SDwWJI0hLl5nrFzAI4eY-3" value="将企业闲置空间信息发布到平台上并及时更新" style="rounded=1;whiteSpace=wrap;html=1;arcSize=40;fontColor=#000000;fillColor=#ffffc0;strokeColor=#ff0000;" vertex="1" parent="SDwWJI0hLl5nrFzAI4eY-6">
          <mxGeometry x="160" y="100" width="120" height="60" as="geometry" />
        </mxCell>
        <mxCell id="SDwWJI0hLl5nrFzAI4eY-20" value="双方签订协议" style="rounded=1;whiteSpace=wrap;html=1;arcSize=40;fontColor=#000000;fillColor=#ffffc0;strokeColor=#ff0000;" vertex="1" parent="SDwWJI0hLl5nrFzAI4eY-6">
          <mxGeometry x="169.99999999999955" y="225" width="120" height="40" as="geometry" />
        </mxCell>
        <mxCell id="SDwWJI0hLl5nrFzAI4eY-21" value="" style="edgeStyle=orthogonalEdgeStyle;html=1;verticalAlign=bottom;endArrow=open;endSize=8;strokeColor=#ff0000;rounded=0;entryX=0.5;entryY=0;entryDx=0;entryDy=0;exitX=0;exitY=0.5;exitDx=0;exitDy=0;" edge="1" source="SDwWJI0hLl5nrFzAI4eY-20" parent="SDwWJI0hLl5nrFzAI4eY-6" target="SDwWJI0hLl5nrFzAI4eY-37">
          <mxGeometry relative="1" as="geometry">
            <mxPoint x="229.99999999999955" y="320" as="targetPoint" />
          </mxGeometry>
        </mxCell>
        <mxCell id="SDwWJI0hLl5nrFzAI4eY-37" value="到期后系统给双方企业发送系统通知和邮件提醒" style="rounded=1;whiteSpace=wrap;html=1;arcSize=40;fontColor=#000000;fillColor=#ffffc0;strokeColor=#ff0000;" vertex="1" parent="SDwWJI0hLl5nrFzAI4eY-6">
          <mxGeometry x="100" y="530" width="120" height="50" as="geometry" />
        </mxCell>
        <mxCell id="SDwWJI0hLl5nrFzAI4eY-4" value="" style="edgeStyle=orthogonalEdgeStyle;html=1;verticalAlign=bottom;endArrow=open;endSize=8;strokeColor=#ff0000;rounded=0;entryX=0;entryY=0.5;entryDx=0;entryDy=0;" edge="1" source="SDwWJI0hLl5nrFzAI4eY-3" parent="SDwWJI0hLl5nrFzAI4eY-5" target="SDwWJI0hLl5nrFzAI4eY-13">
          <mxGeometry relative="1" as="geometry">
            <mxPoint x="599.9999999999995" y="150" as="targetPoint" />
          </mxGeometry>
        </mxCell>
        <mxCell id="SDwWJI0hLl5nrFzAI4eY-18" value="no" style="edgeStyle=orthogonalEdgeStyle;html=1;align=left;verticalAlign=bottom;endArrow=open;endSize=8;strokeColor=#ff0000;rounded=0;entryX=1;entryY=0.5;entryDx=0;entryDy=0;" edge="1" source="SDwWJI0hLl5nrFzAI4eY-17" parent="SDwWJI0hLl5nrFzAI4eY-5" target="SDwWJI0hLl5nrFzAI4eY-20">
          <mxGeometry x="-1" relative="1" as="geometry">
            <mxPoint x="609.9999999999995" y="265" as="targetPoint" />
          </mxGeometry>
        </mxCell>
        <mxCell id="SDwWJI0hLl5nrFzAI4eY-34" value="" style="edgeStyle=orthogonalEdgeStyle;html=1;verticalAlign=bottom;endArrow=open;endSize=8;strokeColor=#ff0000;rounded=0;entryX=0.75;entryY=1;entryDx=0;entryDy=0;" edge="1" source="SDwWJI0hLl5nrFzAI4eY-33" parent="SDwWJI0hLl5nrFzAI4eY-5" target="SDwWJI0hLl5nrFzAI4eY-20">
          <mxGeometry relative="1" as="geometry">
            <mxPoint x="339.99999999999955" y="390" as="targetPoint" />
          </mxGeometry>
        </mxCell>
        <mxCell id="SDwWJI0hLl5nrFzAI4eY-38" value="" style="edgeStyle=orthogonalEdgeStyle;html=1;verticalAlign=bottom;endArrow=open;endSize=8;strokeColor=#ff0000;rounded=0;entryX=0;entryY=0.5;entryDx=0;entryDy=0;" edge="1" source="SDwWJI0hLl5nrFzAI4eY-37" parent="SDwWJI0hLl5nrFzAI4eY-5" target="SDwWJI0hLl5nrFzAI4eY-39">
          <mxGeometry relative="1" as="geometry">
            <mxPoint x="649.9999999999995" y="640" as="targetPoint" />
            <Array as="points">
              <mxPoint x="160" y="740" />
              <mxPoint x="655" y="740" />
            </Array>
          </mxGeometry>
        </mxCell>
        <mxCell id="SDwWJI0hLl5nrFzAI4eY-7" value="client" style="swimlane;startSize=20;html=1;" vertex="1" parent="SDwWJI0hLl5nrFzAI4eY-5">
          <mxGeometry x="570" y="20" width="600" height="860" as="geometry" />
        </mxCell>
        <mxCell id="SDwWJI0hLl5nrFzAI4eY-16" value="" style="edgeStyle=orthogonalEdgeStyle;rounded=0;orthogonalLoop=1;jettySize=auto;html=1;strokeColor=#FF0000;entryX=0.5;entryY=0;entryDx=0;entryDy=0;" edge="1" parent="SDwWJI0hLl5nrFzAI4eY-7" source="SDwWJI0hLl5nrFzAI4eY-13" target="SDwWJI0hLl5nrFzAI4eY-17">
          <mxGeometry relative="1" as="geometry">
            <mxPoint x="249.99999999999955" y="220" as="targetPoint" />
          </mxGeometry>
        </mxCell>
        <mxCell id="SDwWJI0hLl5nrFzAI4eY-13" value="选中合适的闲置空间进行预约" style="rounded=1;whiteSpace=wrap;html=1;arcSize=40;fontColor=#000000;fillColor=#ffffc0;strokeColor=#ff0000;" vertex="1" parent="SDwWJI0hLl5nrFzAI4eY-7">
          <mxGeometry x="189.99999999999955" y="110" width="120" height="40" as="geometry" />
        </mxCell>
        <mxCell id="SDwWJI0hLl5nrFzAI4eY-17" value="有其他疑问" style="rhombus;whiteSpace=wrap;html=1;fontColor=#000000;fillColor=#ffffc0;strokeColor=#ff0000;" vertex="1" parent="SDwWJI0hLl5nrFzAI4eY-7">
          <mxGeometry x="195" y="220" width="110" height="50" as="geometry" />
        </mxCell>
        <mxCell id="SDwWJI0hLl5nrFzAI4eY-19" value="yes" style="edgeStyle=orthogonalEdgeStyle;html=1;align=left;verticalAlign=top;endArrow=open;endSize=8;strokeColor=#ff0000;rounded=0;entryX=0.5;entryY=0;entryDx=0;entryDy=0;" edge="1" source="SDwWJI0hLl5nrFzAI4eY-17" parent="SDwWJI0hLl5nrFzAI4eY-7" target="SDwWJI0hLl5nrFzAI4eY-22">
          <mxGeometry x="-1" relative="1" as="geometry">
            <mxPoint x="249.99999999999955" y="330" as="targetPoint" />
          </mxGeometry>
        </mxCell>
        <mxCell id="SDwWJI0hLl5nrFzAI4eY-22" value="与对方企业进行商谈，交流相关细节" style="rounded=1;whiteSpace=wrap;html=1;arcSize=40;fontColor=#000000;fillColor=#ffffc0;strokeColor=#ff0000;" vertex="1" parent="SDwWJI0hLl5nrFzAI4eY-7">
          <mxGeometry x="189.99999999999955" y="330" width="120" height="40" as="geometry" />
        </mxCell>
        <mxCell id="SDwWJI0hLl5nrFzAI4eY-23" value="" style="edgeStyle=orthogonalEdgeStyle;html=1;verticalAlign=bottom;endArrow=open;endSize=8;strokeColor=#ff0000;rounded=0;entryX=0.5;entryY=0;entryDx=0;entryDy=0;" edge="1" source="SDwWJI0hLl5nrFzAI4eY-22" parent="SDwWJI0hLl5nrFzAI4eY-7" target="SDwWJI0hLl5nrFzAI4eY-24">
          <mxGeometry relative="1" as="geometry">
            <mxPoint x="249.99999999999955" y="420" as="targetPoint" />
          </mxGeometry>
        </mxCell>
        <mxCell id="SDwWJI0hLl5nrFzAI4eY-24" value="对方在线" style="rhombus;whiteSpace=wrap;html=1;fontColor=#000000;fillColor=#ffffc0;strokeColor=#ff0000;" vertex="1" parent="SDwWJI0hLl5nrFzAI4eY-7">
          <mxGeometry x="209.99999999999955" y="430" width="80" height="40" as="geometry" />
        </mxCell>
        <mxCell id="SDwWJI0hLl5nrFzAI4eY-25" value="no" style="edgeStyle=orthogonalEdgeStyle;html=1;align=left;verticalAlign=bottom;endArrow=open;endSize=8;strokeColor=#ff0000;rounded=0;entryX=1;entryY=0.5;entryDx=0;entryDy=0;" edge="1" source="SDwWJI0hLl5nrFzAI4eY-24" parent="SDwWJI0hLl5nrFzAI4eY-7" target="SDwWJI0hLl5nrFzAI4eY-30">
          <mxGeometry x="-1" relative="1" as="geometry">
            <mxPoint x="139.99999999999955" y="450" as="targetPoint" />
          </mxGeometry>
        </mxCell>
        <mxCell id="SDwWJI0hLl5nrFzAI4eY-26" value="yes" style="edgeStyle=orthogonalEdgeStyle;html=1;align=left;verticalAlign=top;endArrow=open;endSize=8;strokeColor=#ff0000;rounded=0;entryX=1;entryY=0.5;entryDx=0;entryDy=0;" edge="1" source="SDwWJI0hLl5nrFzAI4eY-24" parent="SDwWJI0hLl5nrFzAI4eY-7" target="SDwWJI0hLl5nrFzAI4eY-33">
          <mxGeometry x="-1" relative="1" as="geometry">
            <mxPoint x="249.99999999999955" y="530" as="targetPoint" />
            <Array as="points">
              <mxPoint x="250" y="530" />
            </Array>
          </mxGeometry>
        </mxCell>
        <mxCell id="SDwWJI0hLl5nrFzAI4eY-30" value="愿意等待" style="rhombus;whiteSpace=wrap;html=1;fontColor=#000000;fillColor=#ffffc0;strokeColor=#ff0000;" vertex="1" parent="SDwWJI0hLl5nrFzAI4eY-7">
          <mxGeometry x="59.999999999999545" y="430" width="80" height="40" as="geometry" />
        </mxCell>
        <mxCell id="SDwWJI0hLl5nrFzAI4eY-31" value="no" style="edgeStyle=orthogonalEdgeStyle;html=1;align=left;verticalAlign=bottom;endArrow=open;endSize=8;strokeColor=#ff0000;rounded=0;entryX=0.5;entryY=1;entryDx=0;entryDy=0;" edge="1" source="SDwWJI0hLl5nrFzAI4eY-30" parent="SDwWJI0hLl5nrFzAI4eY-7" target="SDwWJI0hLl5nrFzAI4eY-35">
          <mxGeometry x="-1" relative="1" as="geometry">
            <mxPoint x="99.99999999999955" y="390" as="targetPoint" />
          </mxGeometry>
        </mxCell>
        <mxCell id="SDwWJI0hLl5nrFzAI4eY-32" value="yes" style="edgeStyle=orthogonalEdgeStyle;html=1;align=left;verticalAlign=top;endArrow=open;endSize=8;strokeColor=#ff0000;rounded=0;entryX=0.5;entryY=0;entryDx=0;entryDy=0;" edge="1" source="SDwWJI0hLl5nrFzAI4eY-30" parent="SDwWJI0hLl5nrFzAI4eY-7" target="SDwWJI0hLl5nrFzAI4eY-33">
          <mxGeometry x="-1" relative="1" as="geometry">
            <mxPoint x="99.99999999999955" y="520" as="targetPoint" />
          </mxGeometry>
        </mxCell>
        <mxCell id="SDwWJI0hLl5nrFzAI4eY-33" value="【对方上线后】商讨相关细节" style="rounded=1;whiteSpace=wrap;html=1;arcSize=40;fontColor=#000000;fillColor=#ffffc0;strokeColor=#ff0000;" vertex="1" parent="SDwWJI0hLl5nrFzAI4eY-7">
          <mxGeometry x="39.999999999999545" y="510" width="120" height="40" as="geometry" />
        </mxCell>
        <mxCell id="SDwWJI0hLl5nrFzAI4eY-35" value="" style="ellipse;html=1;shape=endState;fillColor=#000000;strokeColor=#ff0000;" vertex="1" parent="SDwWJI0hLl5nrFzAI4eY-7">
          <mxGeometry x="84.99999999999955" y="370" width="30" height="30" as="geometry" />
        </mxCell>
        <mxCell id="SDwWJI0hLl5nrFzAI4eY-39" value="给对方服务打分" style="rounded=1;whiteSpace=wrap;html=1;arcSize=40;fontColor=#000000;fillColor=#ffffc0;strokeColor=#ff0000;" vertex="1" parent="SDwWJI0hLl5nrFzAI4eY-7">
          <mxGeometry x="139.99999999999955" y="700" width="120" height="40" as="geometry" />
        </mxCell>
        <mxCell id="SDwWJI0hLl5nrFzAI4eY-42" value="" style="ellipse;html=1;shape=endState;fillColor=#000000;strokeColor=#ff0000;" vertex="1" parent="SDwWJI0hLl5nrFzAI4eY-7">
          <mxGeometry x="319.99999999999955" y="705" width="30" height="30" as="geometry" />
        </mxCell>
        <mxCell id="SDwWJI0hLl5nrFzAI4eY-40" value="" style="edgeStyle=orthogonalEdgeStyle;html=1;verticalAlign=bottom;endArrow=open;endSize=8;strokeColor=#ff0000;rounded=0;entryX=0;entryY=0.5;entryDx=0;entryDy=0;" edge="1" source="SDwWJI0hLl5nrFzAI4eY-39" parent="SDwWJI0hLl5nrFzAI4eY-7" target="SDwWJI0hLl5nrFzAI4eY-42">
          <mxGeometry relative="1" as="geometry">
            <mxPoint x="429.99999999999955" y="720" as="targetPoint" />
            <Array as="points" />
          </mxGeometry>
        </mxCell>
      </root>
    </mxGraphModel>
  </diagram>
</mxfile>
